<?xml version="1.0" encoding="utf-8"?>
<!-- Generator: Adobe Illustrator 16.0.0, SVG Export Plug-In . SVG Version: 6.00 Build 0)  -->
<!DOCTYPE svg PUBLIC "-//W3C//DTD SVG 1.1//EN" "http://www.w3.org/Graphics/SVG/1.1/DTD/svg11.dtd">
<svg version="1.1" id="Ebene_1" xmlns="http://www.w3.org/2000/svg" xmlns:xlink="http://www.w3.org/1999/xlink" x="0px" y="0px"
	 width="2154.332px" height="2154.331px" viewBox="-565.166 -565.165 2154.332 2154.331"
	 enable-background="new -565.166 -565.165 2154.332 2154.331" xml:space="preserve">
<path d="M512-321.032c-464.521,0-841.148,376.627-841.148,841.148c0,371.698,240.99,686.923,575.26,798.123
	c42.047,7.703,57.399-18.276,57.399-40.455c0-20.024-0.771-86.352-1.182-156.585c-233.903,50.825-283.343-99.188-283.343-99.188
	c-38.298-97.135-93.387-123.01-93.387-123.01c-76.444-52.16,5.8-51.134,5.8-51.134c84.452,5.851,128.915,86.66,128.915,86.66
	c75.059,128.556,196.939,91.386,244.788,69.822c7.646-54.214,29.415-91.384,53.393-112.331
	C171.772,870.766-24.652,798.582-24.652,476.27c0-91.899,32.806-166.852,86.506-225.74c-8.574-21.358-37.53-106.941,8.317-222.71
	c0,0,70.541-22.589,231.336,86.25C368.555,95.332,440.484,86.091,512,85.783c71.465,0.308,143.441,9.651,210.595,28.389
	c160.488-108.94,231.132-86.25,231.132-86.25c46,115.874,17.044,201.354,8.419,222.609c53.907,58.888,86.456,133.844,86.456,225.74
	c0,323.133-196.732,394.289-384.121,415.134c30.292,26.08,57.09,77.214,57.09,155.661c0,112.434-1.132,203.1-1.132,230.823
	c0,22.384,15.3,48.565,57.911,40.351c334.018-111.405,574.799-426.63,574.799-798.123C1353.148,55.595,976.52-321.032,512-321.032z"
	/>
</svg>
