<?xml version="1.0" encoding="UTF-8"?>
<svg id="Layer_1" xmlns="http://www.w3.org/2000/svg" version="1.1" viewBox="0 0 1000 1000">
  <!-- Generator: Adobe Illustrator 29.7.1, SVG Export Plug-In . SVG Version: 2.1.1 Build 8)  -->
  <defs>
    <style>
      .st0 {
        fill: #fff;
      }
    </style>
  </defs>
  <path d="M813.55,131.99H186.29c-29.95,0-54.29,23.76-54.29,53.07v629.84c0,29.31,24.34,53.11,54.29,53.11h627.27c30.01,0,54.45-23.8,54.45-53.11V185.06c0-29.31-24.44-53.07-54.45-53.07h-.01Z"/>
  <path class="st0" d="M241.05,407.92h109.27v351.24h-109.27v-351.24h0ZM295.72,233.32c34.92,0,63.27,28.36,63.27,63.3s-28.35,63.31-63.27,63.31-63.33-28.36-63.33-63.31,28.27-63.3,63.33-63.3"/>
  <path class="st0" d="M418.81,407.92h104.64v48.02h1.5c14.56-27.61,50.17-56.73,103.28-56.73,110.53,0,130.96,72.73,130.96,167.32v192.63h-109.15v-170.81c0-40.73-.7-93.13-56.72-93.13s-65.47,44.39-65.47,90.22v173.72h-109.03v-351.24h0Z"/>
</svg>