<?xml version="1.0" encoding="UTF-8"?>
<svg id="Layer_1" xmlns="http://www.w3.org/2000/svg" version="1.1" viewBox="0 0 1000 1000">
  <!-- Generator: Adobe Illustrator 29.7.1, SVG Export Plug-In . SVG Version: 2.1.1 Build 8)  -->
  <defs>
    <style>
      .st0 {
        fill: #fff;
      }

      .st1 {
        opacity: .61;
      }
    </style>
  </defs>
  <g id="watermark">
    <g>
      <g id="watermark1" data-name="watermark" class="st1">
        <g>
          <g>
            <g>
              <polygon class="st0" points="421.11 924.53 409.01 952.49 402.61 952.49 390.55 924.53 397.54 924.53 406.05 944.5 414.68 924.53 421.11 924.53"/>
              <path class="st0" d="M442.32,943.19h-16.26c.6,2.68,2.88,4.32,6.15,4.32,2.28,0,3.92-.68,5.39-2.08l3.32,3.59c-2,2.28-4.99,3.48-8.87,3.48-7.43,0-12.27-4.67-12.27-11.07s4.91-11.07,11.47-11.07,11.19,4.23,11.19,11.15c0,.48-.08,1.16-.12,1.68M425.98,939.55h10.59c-.44-2.72-2.48-4.47-5.27-4.47s-4.87,1.72-5.31,4.47"/>
              <path class="st0" d="M445,941.43c0-6.47,4.99-11.07,11.98-11.07,4.51,0,8.07,1.96,9.63,5.47l-4.83,2.6c-1.16-2.04-2.88-2.96-4.83-2.96-3.16,0-5.63,2.2-5.63,5.95s2.48,5.95,5.63,5.95c1.96,0,3.67-.88,4.83-2.96l4.83,2.64c-1.56,3.44-5.11,5.43-9.63,5.43-6.99,0-11.98-4.6-11.98-11.07"/>
              <path class="st0" d="M484.39,951.14c-1.28.92-3.16,1.36-5.07,1.36-5.07,0-8.03-2.6-8.03-7.71v-8.83h-3.32v-4.79h3.32v-5.23h6.23v5.23h5.35v4.79h-5.35v8.75c0,1.84,1,2.84,2.68,2.84.92,0,1.84-.28,2.52-.8l1.68,4.4Z"/>
            </g>
            <path class="st0" d="M527.16,930.68v5.75c-.52-.04-.92-.08-1.4-.08-3.43,0-5.71,1.88-5.71,5.99v10.15h-6.23v-21.49h5.95v2.84c1.52-2.08,4.07-3.16,7.39-3.16"/>
            <path class="st0" d="M528.95,949.26l2.2-4.87c2.36,1.72,5.87,2.92,9.23,2.92,3.84,0,5.39-1.28,5.39-3,0-5.23-16.26-1.64-16.26-12.03,0-4.75,3.84-8.71,11.78-8.71,3.52,0,7.11.84,9.71,2.48l-2,4.91c-2.6-1.48-5.27-2.2-7.75-2.2-3.84,0-5.31,1.44-5.31,3.2,0,5.15,16.26,1.6,16.26,11.86,0,4.67-3.88,8.67-11.86,8.67-4.43,0-8.91-1.32-11.39-3.24"/>
            <path class="st0" d="M577.13,943.19h-16.26c.6,2.68,2.88,4.32,6.15,4.32,2.28,0,3.91-.68,5.39-2.08l3.32,3.59c-2,2.28-4.99,3.48-8.87,3.48-7.43,0-12.27-4.67-12.27-11.07s4.91-11.07,11.47-11.07,11.19,4.23,11.19,11.15c0,.48-.08,1.16-.12,1.68M560.79,939.55h10.59c-.44-2.72-2.48-4.47-5.27-4.47s-4.87,1.72-5.31,4.47"/>
            <path class="st0" d="M602.34,943.19h-16.26c.6,2.68,2.88,4.32,6.15,4.32,2.28,0,3.91-.68,5.39-2.08l3.32,3.59c-2,2.28-4.99,3.48-8.87,3.48-7.43,0-12.27-4.67-12.27-11.07s4.91-11.07,11.47-11.07,11.19,4.23,11.19,11.15c0,.48-.08,1.16-.12,1.68M586,939.55h10.59c-.44-2.72-2.48-4.47-5.27-4.47s-4.87,1.72-5.31,4.47"/>
            <polygon class="st0" points="615.84 944.06 612.84 947.02 612.84 952.49 606.61 952.49 606.61 922.85 612.84 922.85 612.84 939.63 621.95 931 629.38 931 620.43 940.11 630.18 952.49 622.63 952.49 615.84 944.06"/>
            <path class="st0" d="M514.37,955.42h0l-6.23-6.23c-.95,1.11-2.08,2.05-3.34,2.8-.2.15-.41.3-.62.43l6.59,6.59c.99.99,2.6.99,3.59,0,.99-.99.99-2.6,0-3.59"/>
            <path class="st0" d="M499.96,929.04c.48-.38,1.08-.61,1.73-.61.09,0,.18,0,.27.01-.47-.34-1.04-.54-1.66-.54-.86,0-1.62.39-2.14,1-.11,0-.22.01-.33.02.09-.17.14-.35.14-.55,0-.51-.31-.95-.75-1.13.19.28.3.61.3.97,0,.27-.07.52-.18.74-6.12.44-10.95,5.53-10.95,11.76s5.28,11.8,11.8,11.8,11.8-5.28,11.8-11.8c0-5.92-4.36-10.8-10.04-11.66M495.61,932.11c.95,0,1.84.24,2.61.67.81-.53,1.79-.84,2.83-.84,1.55,0,2.93.68,3.88,1.76-.95-.83-2.19-1.33-3.54-1.33-.98,0-1.89.26-2.69.72-.17.1-.34.21-.5.33-.14-.1-.29-.2-.44-.29-.8-.48-1.74-.75-2.74-.75-.65,0-1.28.12-1.86.33.74-.38,1.57-.59,2.45-.59M503.86,941.79c.25.66.39,1.38.39,2.13,0,3.34-2.71,6.05-6.05,6.05s-6.05-2.71-6.05-6.05c0-.75.14-1.47.39-2.13-1.35-.83-2.25-2.32-2.25-4.02,0-2.61,2.11-4.72,4.72-4.72,1.23,0,2.35.47,3.19,1.24.84-.77,1.96-1.24,3.19-1.24,2.61,0,4.72,2.11,4.72,4.72,0,1.7-.9,3.19-2.25,4.02"/>
            <path class="st0" d="M503.63,937.35c0,1.08-.88,1.96-1.96,1.96s-1.96-.88-1.96-1.96.88-1.96,1.96-1.96c.22,0,.43.04.62.1-.07.14-.1.29-.1.45,0,.59.48,1.08,1.08,1.08.11,0,.22-.02.32-.05.03.12.04.25.04.39"/>
            <path class="st0" d="M496.2,937.35c0,.82-.67,1.48-1.48,1.48s-1.48-.66-1.48-1.48.67-1.48,1.48-1.48c.17,0,.32.03.47.08-.05.1-.08.22-.08.34,0,.45.36.81.81.81.08,0,.16-.01.24-.04.02.09.03.19.03.29"/>
            <g>
              <g>
                <rect class="st0" x="484.56" y="939.02" width="1.34" height="1.34"/>
                <rect class="st0" x="510.51" y="939.02" width="1.34" height="1.34"/>
                <path class="st0" d="M511.33,939.57h-.3c0-7.07-5.75-12.82-12.82-12.82s-12.82,5.75-12.82,12.82h-.3c0-3.51,1.36-6.8,3.85-9.28,2.48-2.48,5.78-3.84,9.28-3.84s6.8,1.36,9.28,3.84c2.48,2.48,3.84,5.77,3.84,9.28"/>
              </g>
              <rect class="st0" x="497.53" y="925.93" width="1.34" height="1.34"/>
              <rect class="st0" x="489.01" y="926.45" width="18.4" height=".3"/>
              <path class="st0" d="M489.49,926.66c0,.23-.19.43-.43.43s-.43-.19-.43-.43.19-.43.43-.43.43.19.43.43"/>
              <path class="st0" d="M507.83,926.66c0,.23-.19.43-.43.43s-.43-.19-.43-.43.19-.43.43-.43.43.19.43.43"/>
            </g>
          </g>
          <path class="st0" d="M640.11,951.17c0,3.4-5.15,3.4-5.15,0s5.15-3.39,5.15,0Z"/>
          <g>
            <g>
              <path class="st0" d="M307.85,936.24l3.86,13.25,4.04-13.25h4.82l-6.14,17.72h-5.07l-1.82-5.22-1.57-5.9-1.57,5.9-1.82,5.22h-5.07l-6.18-17.72h4.86l4.04,13.25,3.82-13.25h3.82Z"/>
              <path class="st0" d="M340.45,936.24l3.86,13.25,4.04-13.25h4.82l-6.14,17.72h-5.07l-1.82-5.22-1.57-5.9-1.57,5.9-1.82,5.22h-5.07l-6.18-17.72h4.86l4.04,13.25,3.82-13.25h3.82Z"/>
              <path class="st0" d="M373.05,936.24l3.86,13.25,4.04-13.25h4.82l-6.14,17.72h-5.07l-1.82-5.22-1.57-5.9-1.57,5.9-1.82,5.22h-5.07l-6.18-17.72h4.86l4.04,13.25,3.82-13.25h3.82Z"/>
            </g>
            <path class="st0" d="M393.12,951.41c0,3.4-5.15,3.4-5.15,0s5.15-3.39,5.15,0Z"/>
            <path class="st0" d="M658.3,951.17c-2.04,2-4.18,2.79-6.79,2.79-5.11,0-9.36-3.07-9.36-9.32s4.25-9.33,9.36-9.33c2.5,0,4.43.72,6.36,2.61l-2.75,2.89c-1.04-.93-2.32-1.39-3.53-1.39-2.93,0-5.07,2.14-5.07,5.22,0,3.36,2.29,5.14,5,5.14,1.39,0,2.79-.39,3.86-1.46l2.93,2.86Z"/>
            <path class="st0" d="M678.1,944.78c0,5.07-3.47,9.18-9.18,9.18s-9.15-4.11-9.15-9.18,3.5-9.18,9.11-9.18,9.22,4.14,9.22,9.18ZM664.13,944.78c0,2.68,1.61,5.18,4.79,5.18s4.79-2.5,4.79-5.18-1.86-5.22-4.79-5.22c-3.14,0-4.79,2.57-4.79,5.22Z"/>
            <path class="st0" d="M692.83,953.96v-9.43c0-2.32-1.22-4.43-3.61-4.43s-3.75,2.11-3.75,4.43v9.43h-4.36v-17.65h4.04l.32,2.14c.93-1.79,2.96-2.43,4.64-2.43,2.11,0,4.22.86,5.22,3.29,1.57-2.5,3.61-3.22,5.9-3.22,5,0,7.47,3.08,7.47,8.36v9.5h-4.36v-9.5c0-2.32-.96-4.29-3.32-4.29s-3.82,2.04-3.82,4.36v9.43h-4.36Z"/>
          </g>
        </g>
      </g>
      <g class="st1">
        <g>
          <path class="st0" d="M708.97,859.49c-.01-2.66-2.09-4.62-4.77-4.66-2.01-.03-1.81.26-1.82-1.89,0-2.39-.02-4.78,0-7.17,0-.82-.24-1.51-.79-2.12-5.1-5.81-10.18-11.63-15.28-17.44-.26-.3-.6-.53-.9-.8h-40.58c-1.73.64-2.48,1.89-2.48,3.72.02,8.16,0,16.32,0,24.48,0,1.21,0,1.28-1.2,1.2-3.26-.22-5.48,2.15-5.44,5.43.1,7.57.03,15.14.03,22.71,0,3.44,1.89,5.32,5.33,5.33q1.27,0,1.27,1.31c0,4.83,0,9.66,0,14.49,0,2.59,1.26,3.85,3.85,3.85,17.45,0,34.89,0,52.34,0,2.54,0,3.82-1.27,3.82-3.8,0-4.91,0-9.82,0-14.73,0-1.11,0-1.11,1.13-1.12.59,0,1.18.02,1.76-.13,2.17-.53,3.68-2.27,3.69-4.5.04-8.05.04-16.1,0-24.16ZM647.03,828.72c11.62,0,23.24,0,34.86,0,1.19,0,1.21.02,1.21,1.22,0,4.88,0,9.77,0,14.65,0,1.77.54,2.3,2.31,2.31,4.16,0,8.32,0,12.48,0,1,0,1.04.05,1.05,1.05,0,1.93,0,3.86,0,5.8,0,1.04-.05,1.09-1.1,1.09-8.48,0-16.96,0-25.44,0h-25.36c-1.2,0-1.2,0-1.2-1.22,0-7.89,0-15.78,0-23.67,0-1.22.01-1.23,1.2-1.23ZM697.73,903.65c-8.45,0-16.91,0-25.36,0s-16.85,0-25.28,0c-1.24,0-1.25,0-1.25-1.26,0-4.35,0-8.7,0-13.04,0-1.01.05-1.06,1.04-1.06,16.99,0,33.98,0,50.97,0,1.04,0,1.09.04,1.09,1.09,0,4.35,0,8.7,0,13.04,0,1.22-.01,1.23-1.2,1.23Z"/>
          <g>
            <rect class="st0" x="668.55" y="828.48" width="3.83" height="2.29"/>
            <rect class="st0" x="664.72" y="830.77" width="3.83" height="2.29"/>
            <rect class="st0" x="668.55" y="833.07" width="3.83" height="2.29"/>
            <rect class="st0" x="664.72" y="835.36" width="3.83" height="2.29"/>
            <rect class="st0" x="668.55" y="837.66" width="3.83" height="2.29"/>
            <rect class="st0" x="664.72" y="839.95" width="3.83" height="2.29"/>
            <rect class="st0" x="668.55" y="842.25" width="3.83" height="2.29"/>
            <rect class="st0" x="664.72" y="844.54" width="3.83" height="2.29"/>
            <rect class="st0" x="668.55" y="846.84" width="3.83" height="2.29"/>
            <rect class="st0" x="664.72" y="849.13" width="3.83" height="2.29"/>
            <rect class="st0" x="668.55" y="851.43" width="3.83" height="2.29"/>
            <rect class="st0" x="664.72" y="853.72" width="3.83" height="2.29"/>
          </g>
        </g>
        <path class="st0" d="M364.23,859.49c-.01-2.66-2.09-4.62-4.77-4.66-2.01-.03-1.81.26-1.82-1.89,0-2.39-.02-4.78,0-7.17,0-.82-.24-1.51-.79-2.12-5.1-5.81-10.18-11.63-15.28-17.44-.26-.3-.6-.53-.9-.8h-40.58c-1.73.64-2.48,1.89-2.48,3.72.02,8.16,0,16.32,0,24.48,0,1.21,0,1.28-1.2,1.2-3.26-.22-5.48,2.15-5.44,5.43.1,7.57.03,15.14.03,22.71,0,3.44,1.89,5.32,5.33,5.33q1.27,0,1.27,1.31c0,4.83,0,9.66,0,14.49,0,2.59,1.26,3.85,3.85,3.85,17.45,0,34.89,0,52.34,0,2.54,0,3.82-1.27,3.82-3.8,0-4.91,0-9.82,0-14.73,0-1.11,0-1.11,1.13-1.12.59,0,1.18.02,1.76-.13,2.17-.53,3.68-2.27,3.69-4.5.03-8.05.04-16.1,0-24.16ZM302.29,828.72c11.62,0,23.24,0,34.86,0,1.19,0,1.21.02,1.21,1.22,0,4.88,0,9.77,0,14.65,0,1.77.54,2.3,2.31,2.31,4.16,0,8.32,0,12.48,0,1,0,1.04.05,1.05,1.05,0,1.93,0,3.86,0,5.8,0,1.04-.05,1.09-1.1,1.09-8.48,0-16.96,0-25.44,0h-25.36c-1.2,0-1.2,0-1.2-1.22,0-7.89,0-15.78,0-23.67,0-1.22,0-1.23,1.2-1.23ZM352.98,903.65c-8.45,0-16.91,0-25.36,0s-16.85,0-25.28,0c-1.24,0-1.25,0-1.25-1.26,0-4.35,0-8.7,0-13.04,0-1.01.05-1.06,1.04-1.06,16.99,0,33.98,0,50.97,0,1.04,0,1.09.04,1.09,1.09,0,4.35,0,8.7,0,13.04,0,1.22-.01,1.23-1.2,1.23Z"/>
        <g>
          <path class="st0" d="M303.58,879.89v-17.19h6.05c.82,0,1.58.13,2.29.4s1.33.64,1.86,1.12c.53.48.94,1.05,1.25,1.72.3.66.46,1.4.46,2.2s-.15,1.56-.46,2.22-.72,1.24-1.25,1.72c-.53.48-1.15.85-1.86,1.12-.71.26-1.48.4-2.29.4h-2.81v6.32h-3.24ZM309.68,870.5c.85,0,1.49-.24,1.92-.72.43-.48.65-1.03.65-1.66,0-.3-.05-.6-.16-.89-.11-.29-.26-.54-.48-.76-.22-.22-.48-.39-.8-.52-.32-.13-.7-.19-1.13-.19h-2.86v4.73h2.86Z"/>
          <path class="st0" d="M317.8,862.7h3.77l6.92,11.53h.19l-.19-3.31v-8.21h3.22v17.19h-3.41l-7.3-12.17h-.19l.19,3.31v8.86h-3.19v-17.19h0Z"/>
          <path class="st0" d="M343.08,870.45h8.43c.05.19.09.42.12.7.03.27.05.54.05.82,0,1.1-.17,2.15-.5,3.12-.34.98-.86,1.85-1.58,2.62-.77.82-1.69,1.45-2.76,1.9-1.07.45-2.3.67-3.67.67-1.25,0-2.43-.22-3.53-.67-1.1-.45-2.07-1.07-2.88-1.87-.82-.8-1.46-1.75-1.95-2.84-.48-1.1-.72-2.29-.72-3.59s.24-2.49.72-3.59,1.13-2.04,1.95-2.84,1.78-1.42,2.88-1.87,2.28-.67,3.53-.67c1.39,0,2.64.24,3.73.72,1.1.48,2.04,1.14,2.82,1.99l-2.23,2.18c-.56-.59-1.18-1.04-1.87-1.36s-1.51-.47-2.47-.47c-.79,0-1.53.14-2.23.42-.7.28-1.32.68-1.85,1.19-.53.51-.95,1.13-1.26,1.86-.31.73-.47,1.54-.47,2.44s.16,1.71.47,2.44c.31.73.73,1.35,1.27,1.86s1.16.91,1.86,1.19c.7.28,1.46.42,2.26.42.91,0,1.68-.13,2.32-.4.63-.26,1.17-.6,1.62-1.02.32-.29.6-.65.83-1.09s.41-.93.54-1.48h-5.4v-2.76Z"/>
        </g>
        <path class="st0" d="M443.44,859.49c-.01-2.66-2.09-4.62-4.77-4.66-2.01-.03-1.81.26-1.82-1.89,0-2.39-.02-4.78,0-7.17,0-.82-.24-1.51-.79-2.12-5.1-5.81-10.18-11.63-15.28-17.44-.26-.3-.6-.53-.9-.8h-40.58c-1.73.64-2.48,1.89-2.48,3.72.02,8.16,0,16.32,0,24.48,0,1.21,0,1.28-1.2,1.2-3.26-.22-5.48,2.15-5.44,5.43.1,7.57.03,15.14.03,22.71,0,3.44,1.89,5.32,5.33,5.33q1.27,0,1.27,1.31c0,4.83,0,9.66,0,14.49,0,2.59,1.26,3.85,3.85,3.85,17.45,0,34.89,0,52.34,0,2.54,0,3.82-1.27,3.82-3.8,0-4.91,0-9.82,0-14.73,0-1.11,0-1.11,1.13-1.12.59,0,1.18.02,1.76-.13,2.17-.53,3.68-2.27,3.69-4.5.03-8.05.04-16.1,0-24.16ZM381.5,828.72c11.62,0,23.24,0,34.86,0,1.19,0,1.21.02,1.21,1.22,0,4.88,0,9.77,0,14.65,0,1.77.54,2.3,2.31,2.31,4.16,0,8.32,0,12.48,0,1,0,1.04.05,1.05,1.05,0,1.93,0,3.86,0,5.8,0,1.04-.05,1.09-1.1,1.09-8.48,0-16.96,0-25.44,0h-25.36c-1.2,0-1.2,0-1.2-1.22,0-7.89,0-15.78,0-23.67,0-1.22.01-1.23,1.2-1.23ZM432.19,903.65c-8.45,0-16.91,0-25.36,0s-16.85,0-25.28,0c-1.24,0-1.25,0-1.25-1.26,0-4.35,0-8.7,0-13.04,0-1.01.05-1.06,1.04-1.06,16.99,0,33.98,0,50.97,0,1.04,0,1.09.04,1.09,1.09,0,4.35,0,8.7,0,13.04,0,1.22-.01,1.23-1.2,1.23Z"/>
        <g>
          <path class="st0" d="M402.27,862.7h3.7l6.46,17.19h-3.58l-1.42-4.11h-6.63l-1.42,4.11h-3.58l6.46-17.19ZM406.38,872.81l-1.54-4.3-.62-2.09h-.19l-.62,2.09-1.54,4.3h4.52Z"/>
          <path class="st0" d="M415.82,866.54c-.27,0-.53-.05-.78-.16-.25-.1-.46-.25-.65-.43-.18-.18-.33-.4-.43-.64-.11-.24-.16-.5-.16-.79s.05-.55.16-.79c.1-.24.25-.45.43-.64.18-.18.4-.33.65-.43.25-.1.51-.16.78-.16.56,0,1.04.2,1.44.59.4.39.6.87.6,1.43s-.2,1.04-.6,1.43c-.4.39-.88.59-1.44.59ZM414.26,879.89v-11.77h3.14v11.77h-3.14Z"/>
        </g>
        <path class="st0" d="M524.04,859.49c-.01-2.66-2.09-4.62-4.77-4.66-2.01-.03-1.81.26-1.82-1.89,0-2.39-.02-4.78,0-7.17,0-.82-.24-1.51-.79-2.12-5.1-5.81-10.18-11.63-15.28-17.44-.26-.3-.6-.53-.9-.8h-40.58c-1.73.64-2.48,1.89-2.48,3.72.02,8.16,0,16.32,0,24.48,0,1.21,0,1.28-1.2,1.2-3.26-.22-5.48,2.15-5.44,5.43.1,7.57.03,15.14.03,22.71,0,3.44,1.89,5.32,5.33,5.33q1.27,0,1.27,1.31c0,4.83,0,9.66,0,14.49,0,2.59,1.26,3.85,3.85,3.85,17.45,0,34.89,0,52.34,0,2.54,0,3.82-1.27,3.82-3.8,0-4.91,0-9.82,0-14.73,0-1.11,0-1.11,1.13-1.12.59,0,1.18.02,1.76-.13,2.17-.53,3.68-2.27,3.69-4.5.03-8.05.04-16.1,0-24.16ZM462.1,828.72c11.62,0,23.24,0,34.86,0,1.19,0,1.21.02,1.21,1.22,0,4.88,0,9.77,0,14.65,0,1.77.54,2.3,2.31,2.31,4.16,0,8.32,0,12.48,0,1,0,1.04.05,1.05,1.05,0,1.93,0,3.86,0,5.8,0,1.04-.05,1.09-1.1,1.09-8.48,0-16.96,0-25.44,0h-25.36c-1.2,0-1.2,0-1.2-1.22,0-7.89,0-15.78,0-23.67,0-1.22,0-1.23,1.2-1.23ZM512.8,903.65c-8.45,0-16.91,0-25.36,0s-16.85,0-25.28,0c-1.24,0-1.25,0-1.25-1.26,0-4.35,0-8.7,0-13.04,0-1.01.05-1.06,1.04-1.06,16.99,0,33.98,0,50.97,0,1.04,0,1.09.04,1.09,1.09,0,4.35,0,8.7,0,13.04,0,1.22-.01,1.23-1.2,1.23Z"/>
        <g>
          <path class="st0" d="M470.31,880.28c-.74,0-1.44-.1-2.11-.31s-1.29-.52-1.85-.94c-.56-.42-1.05-.92-1.46-1.53-.42-.6-.74-1.3-.98-2.1l3.05-1.2c.22.86.62,1.58,1.18,2.15s1.3.85,2.21.85c.34,0,.66-.04.97-.13.31-.09.59-.22.84-.38.25-.17.44-.38.59-.64.14-.26.22-.55.22-.89s-.06-.61-.17-.86c-.11-.26-.3-.49-.56-.72-.26-.22-.61-.44-1.03-.65-.42-.21-.95-.42-1.57-.65l-1.06-.38c-.46-.16-.93-.38-1.4-.65-.47-.27-.9-.6-1.28-.98-.39-.38-.7-.84-.95-1.36-.25-.52-.37-1.11-.37-1.77s.13-1.3.4-1.89.64-1.1,1.13-1.54c.49-.44,1.07-.78,1.75-1.03s1.44-.37,2.27-.37,1.61.12,2.24.35,1.17.53,1.61.89c.44.36.8.76,1.07,1.19.27.43.47.84.6,1.22l-2.86,1.2c-.16-.48-.45-.91-.88-1.3-.42-.38-1.01-.58-1.74-.58s-1.29.16-1.75.49c-.46.33-.7.76-.7,1.28s.22.95.67,1.31c.45.36,1.16.71,2.14,1.04l1.08.36c.69.24,1.32.52,1.89.83.57.31,1.06.68,1.46,1.12.41.43.72.92.94,1.48.22.55.32,1.19.32,1.91,0,.9-.18,1.67-.54,2.32-.36.65-.82,1.18-1.38,1.6-.56.42-1.19.73-1.9.94-.71.21-1.4.31-2.07.31Z"/>
          <path class="st0" d="M477.17,862.7h3.51l3.55,10.35.62,2.21h.19l.67-2.21,3.7-10.35h3.51l-6.27,17.19h-3.41l-6.08-17.19Z"/>
          <path class="st0" d="M502.39,870.45h8.43c.05.19.09.42.12.7.03.27.05.54.05.82,0,1.1-.17,2.15-.51,3.12-.34.98-.86,1.85-1.58,2.62-.77.82-1.69,1.45-2.76,1.9s-2.3.67-3.67.67c-1.25,0-2.42-.22-3.53-.67-1.11-.45-2.07-1.07-2.88-1.87-.82-.8-1.46-1.75-1.95-2.84-.48-1.1-.72-2.29-.72-3.59s.24-2.49.72-3.59c.48-1.1,1.13-2.04,1.95-2.84s1.78-1.42,2.88-1.87c1.1-.45,2.28-.67,3.53-.67,1.39,0,2.64.24,3.73.72,1.1.48,2.04,1.14,2.82,1.99l-2.23,2.18c-.56-.59-1.18-1.04-1.87-1.36-.69-.31-1.51-.47-2.47-.47-.78,0-1.53.14-2.23.42-.7.28-1.32.68-1.85,1.19-.53.51-.95,1.13-1.26,1.86-.31.73-.47,1.54-.47,2.44s.16,1.71.47,2.44c.31.73.74,1.35,1.27,1.86s1.16.91,1.86,1.19c.7.28,1.46.42,2.26.42.91,0,1.68-.13,2.32-.4s1.17-.6,1.62-1.02c.32-.29.6-.65.83-1.09.23-.44.41-.93.54-1.48h-5.4v-2.76Z"/>
        </g>
        <path class="st0" d="M602.98,859.49c-.01-2.66-2.09-4.62-4.77-4.66-2.01-.03-1.81.26-1.82-1.89,0-2.39-.02-4.78,0-7.17,0-.82-.24-1.51-.79-2.12-5.1-5.81-10.18-11.63-15.28-17.44-.26-.3-.6-.53-.9-.8h-40.58c-1.73.64-2.48,1.89-2.48,3.72.02,8.16,0,16.32,0,24.48,0,1.21,0,1.28-1.2,1.2-3.26-.22-5.48,2.15-5.44,5.43.1,7.57.03,15.14.03,22.71,0,3.44,1.89,5.32,5.33,5.33q1.27,0,1.27,1.31c0,4.83,0,9.66,0,14.49,0,2.59,1.26,3.85,3.85,3.85,17.45,0,34.89,0,52.34,0,2.54,0,3.82-1.27,3.82-3.8,0-4.91,0-9.82,0-14.73,0-1.11,0-1.11,1.13-1.12.59,0,1.18.02,1.76-.13,2.17-.53,3.68-2.27,3.69-4.5.04-8.05.04-16.1,0-24.16ZM541.04,828.72c11.62,0,23.24,0,34.86,0,1.19,0,1.21.02,1.21,1.22,0,4.88,0,9.77,0,14.65,0,1.77.54,2.3,2.31,2.31,4.16,0,8.32,0,12.48,0,1,0,1.04.05,1.05,1.05,0,1.93,0,3.86,0,5.8,0,1.04-.05,1.09-1.1,1.09-8.48,0-16.96,0-25.44,0h-25.36c-1.2,0-1.2,0-1.2-1.22,0-7.89,0-15.78,0-23.67,0-1.22.01-1.23,1.2-1.23ZM591.73,903.65c-8.45,0-16.91,0-25.36,0s-16.85,0-25.28,0c-1.24,0-1.25,0-1.25-1.26,0-4.35,0-8.7,0-13.04,0-1.01.05-1.06,1.04-1.06,16.99,0,33.98,0,50.97,0,1.04,0,1.09.04,1.09,1.09,0,4.35,0,8.7,0,13.04,0,1.22-.01,1.23-1.2,1.23Z"/>
        <g>
          <path class="st0" d="M550,865.77v3.99h6.89v3.07h-6.89v3.99h7.66v3.07h-10.9v-17.19h10.9v3.07h-7.66Z"/>
          <path class="st0" d="M560.64,879.89v-17.19h6.05c.82,0,1.58.13,2.29.4.71.26,1.33.64,1.86,1.12.53.48.94,1.05,1.25,1.72.3.66.46,1.4.46,2.2s-.15,1.56-.46,2.22c-.3.66-.72,1.24-1.25,1.72-.53.48-1.15.85-1.86,1.12-.71.26-1.48.4-2.29.4h-2.81v6.32h-3.24ZM566.73,870.5c.85,0,1.49-.24,1.92-.72s.65-1.03.65-1.66c0-.3-.05-.6-.16-.89-.1-.29-.26-.54-.48-.76-.22-.22-.48-.39-.8-.52-.32-.13-.7-.19-1.13-.19h-2.86v4.73h2.86Z"/>
          <path class="st0" d="M580.11,880.28c-.74,0-1.44-.1-2.11-.31s-1.29-.52-1.85-.94c-.56-.42-1.05-.92-1.47-1.53-.42-.6-.74-1.3-.98-2.1l3.05-1.2c.22.86.62,1.58,1.18,2.15.56.57,1.3.85,2.21.85.34,0,.66-.04.97-.13.31-.09.59-.22.84-.38.25-.17.44-.38.59-.64.14-.26.22-.55.22-.89s-.06-.61-.17-.86c-.11-.26-.3-.49-.57-.72-.26-.22-.61-.44-1.03-.65s-.95-.42-1.57-.65l-1.06-.38c-.47-.16-.93-.38-1.4-.65-.47-.27-.9-.6-1.28-.98-.38-.38-.7-.84-.95-1.36-.25-.52-.37-1.11-.37-1.77s.13-1.3.4-1.89.64-1.1,1.13-1.54c.49-.44,1.07-.78,1.75-1.03s1.44-.37,2.27-.37,1.61.12,2.25.35c.63.23,1.17.53,1.61.89.44.36.8.76,1.07,1.19.27.43.47.84.6,1.22l-2.86,1.2c-.16-.48-.45-.91-.88-1.3s-1.01-.58-1.74-.58-1.29.16-1.75.49c-.47.33-.7.76-.7,1.28s.22.95.67,1.31c.45.36,1.16.71,2.14,1.04l1.08.36c.69.24,1.32.52,1.89.83.57.31,1.06.68,1.47,1.12.41.43.72.92.94,1.48s.32,1.19.32,1.91c0,.9-.18,1.67-.54,2.32s-.82,1.18-1.38,1.6c-.56.42-1.19.73-1.9.94-.71.21-1.39.31-2.07.31Z"/>
        </g>
        <g>
          <path class="st0" d="M655.43,876.63l8.72-10.85h-8.33v-3.07h12.1v3.27l-8.62,10.85h8.72v3.07h-12.58v-3.27h0Z"/>
          <path class="st0" d="M670.7,862.7h3.24v17.19h-3.24v-17.19Z"/>
          <path class="st0" d="M677.4,879.89v-17.19h6.05c.82,0,1.58.13,2.29.4.71.26,1.33.64,1.86,1.12s.94,1.05,1.25,1.72c.3.66.46,1.4.46,2.2s-.15,1.56-.46,2.22c-.3.66-.72,1.24-1.25,1.72s-1.15.85-1.86,1.12c-.71.26-1.48.4-2.29.4h-2.81v6.32h-3.24ZM683.5,870.5c.85,0,1.49-.24,1.92-.72.43-.48.65-1.03.65-1.66,0-.3-.05-.6-.16-.89-.1-.29-.26-.54-.48-.76-.22-.22-.48-.39-.8-.52-.32-.13-.7-.19-1.13-.19h-2.86v4.73h2.86Z"/>
        </g>
      </g>
      <g class="st1">
        <path class="st0" d="M609.14,863.79h19.74v4.88h-19.74v-4.88ZM609.14,872.2h19.74v4.88h-19.74v-4.88Z"/>
      </g>
    </g>
    <g class="st1">
      <path class="st0" d="M297,963.08h3.5c2.75,0,4.6,1.77,4.6,4.3s-1.85,4.3-4.6,4.3h-3.5v-8.59ZM300.45,970.88c2.28,0,3.76-1.45,3.76-3.51s-1.47-3.51-3.76-3.51h-2.54v7.02h2.54Z"/>
      <path class="st0" d="M315.25,967.37c0-2.5,1.92-4.37,4.52-4.37s4.51,1.85,4.51,4.37-1.93,4.37-4.51,4.37-4.52-1.86-4.52-4.37ZM323.36,967.37c0-2.05-1.53-3.56-3.6-3.56s-3.62,1.51-3.62,3.56,1.55,3.56,3.62,3.56,3.6-1.51,3.6-3.56Z"/>
      <path class="st0" d="M346.72,963.08l-2.9,8.59h-.96l-2.52-7.33-2.53,7.33h-.95l-2.9-8.59h.93l2.48,7.39,2.57-7.39h.85l2.53,7.43,2.52-7.43h.87Z"/>
      <path class="st0" d="M364.43,963.08v8.59h-.75l-5.52-6.97v6.97h-.91v-8.59h.75l5.54,6.97v-6.97h.9Z"/>
      <path class="st0" d="M376.11,963.08h.91v7.81h4.81v.79h-5.72v-8.59Z"/>
      <path class="st0" d="M391.28,967.37c0-2.5,1.92-4.37,4.52-4.37s4.51,1.85,4.51,4.37-1.93,4.37-4.51,4.37-4.52-1.86-4.52-4.37ZM399.39,967.37c0-2.05-1.53-3.56-3.6-3.56s-3.62,1.51-3.62,3.56,1.55,3.56,3.62,3.56,3.6-1.51,3.6-3.56Z"/>
      <path class="st0" d="M416.48,969.37h-4.79l-1.03,2.29h-.95l3.93-8.59h.9l3.93,8.59h-.96l-1.03-2.29ZM416.15,968.64l-2.06-4.61-2.06,4.61h4.12Z"/>
      <path class="st0" d="M428.77,963.08h3.5c2.75,0,4.6,1.77,4.6,4.3s-1.85,4.3-4.6,4.3h-3.5v-8.59ZM432.21,970.88c2.28,0,3.76-1.45,3.76-3.51s-1.47-3.51-3.76-3.51h-2.54v7.02h2.54Z"/>
      <path class="st0" d="M465.26,969.37h-4.79l-1.03,2.29h-.95l3.93-8.59h.9l3.93,8.59h-.96l-1.03-2.29ZM464.92,968.64l-2.06-4.61-2.06,4.61h4.12Z"/>
      <path class="st0" d="M477.54,963.08h.91v7.81h4.81v.79h-5.72v-8.59Z"/>
      <path class="st0" d="M493.65,963.08h.91v7.81h4.81v.79h-5.72v-8.59Z"/>
      <path class="st0" d="M522.75,963.86v3.38h4.44v.79h-4.44v3.65h-.91v-8.59h5.89v.79h-4.98Z"/>
      <path class="st0" d="M538.48,963.08h.91v8.59h-.91v-8.59Z"/>
      <path class="st0" d="M551.07,963.08h.91v7.81h4.81v.79h-5.72v-8.59Z"/>
      <path class="st0" d="M573.25,970.88v.79h-6.08v-8.59h5.89v.79h-4.98v3.06h4.44v.77h-4.44v3.19h5.17Z"/>
      <path class="st0" d="M597.26,963.86v3.38h4.44v.79h-4.44v3.65h-.91v-8.59h5.89v.79h-4.98Z"/>
      <path class="st0" d="M612.12,967.37c0-2.5,1.91-4.37,4.52-4.37s4.51,1.85,4.51,4.37-1.93,4.37-4.51,4.37-4.52-1.86-4.52-4.37ZM620.23,967.37c0-2.05-1.53-3.56-3.6-3.56s-3.62,1.51-3.62,3.56,1.55,3.56,3.62,3.56,3.6-1.51,3.6-3.56Z"/>
      <path class="st0" d="M637.92,971.67l-1.96-2.76c-.22.02-.44.04-.69.04h-2.31v2.72h-.91v-8.59h3.22c2.18,0,3.51,1.1,3.51,2.95,0,1.35-.71,2.29-1.96,2.7l2.1,2.95h-.99ZM637.87,966.02c0-1.38-.91-2.16-2.63-2.16h-2.28v4.31h2.28c1.72,0,2.63-.8,2.63-2.15Z"/>
      <path class="st0" d="M658.72,963.08v8.59h-.87v-6.87l-3.38,5.78h-.43l-3.38-5.74v6.84h-.87v-8.59h.75l3.73,6.37,3.7-6.37h.75Z"/>
      <path class="st0" d="M675.79,969.37h-4.79l-1.03,2.29h-.95l3.93-8.59h.9l3.93,8.59h-.96l-1.03-2.29ZM675.46,968.64l-2.06-4.61-2.06,4.61h4.12Z"/>
      <path class="st0" d="M689.31,963.86h-3.02v-.79h6.95v.79h-3.02v7.81h-.91v-7.81h0Z"/>
      <path class="st0" d="M702.6,970.63l.36-.7c.61.6,1.71,1.04,2.84,1.04,1.61,0,2.31-.67,2.31-1.52,0-2.36-5.29-.91-5.29-4.09,0-1.27.98-2.36,3.17-2.36.97,0,1.98.28,2.66.76l-.31.72c-.74-.48-1.6-.71-2.36-.71-1.57,0-2.27.7-2.27,1.56,0,2.36,5.29.93,5.29,4.06,0,1.27-1.01,2.34-3.2,2.34-1.29,0-2.55-.45-3.19-1.12Z"/>
    </g>
  </g>
  <path d="M889.68,490.85c-35.44,0-62.54-1.07-80.26-2.15l-14.59-1.07v37.66l34.4,6.46c11.47,2.15,22.93,5.38,22.93,51.65v80.71c-22.93,11.84-57.34,13.99-77.14,13.99-90.69,0-149.06-80.71-149.06-204.47s60.46-204.47,150.1-204.47c58.38,0,91.73,32.29,95.9,90.4l1.04,7.54h44.82l-2.09-8.61c-3.13-40.9-3.13-75.33-4.17-107.62v-5.38l-5.21-2.15c-27.1-9.68-68.8-23.68-129.26-23.68-133.43,0-230.37,108.69-230.37,260.43s86.52,249.67,219.95,249.67c63.59,0,127.17-15.07,151.15-26.91l5.21-2.15v-116.22c0-45.2,7.29-48.43,19.81-51.66l28.15-5.38v-37.66l-19.81,1.07h-61.51ZM330.9,363.86c0,55.96-36.48,91.47-93.82,91.47-19.81,0-30.23-1.07-42.74-1.07v-174.34c14.59-1.07,33.35-1.07,50.03-1.07,56.29-1.07,86.52,29.06,86.52,85.02M414.29,644.74c-35.44-40.9-74.01-96.85-103.2-149.59,55.25-19.37,96.94-76.41,96.94-135.6,0-82.86-56.29-133.44-152.19-133.44-22.93,0-42.74,1.07-62.54,1.07-16.68,1.07-31.27,1.07-45.87,1.07-28.15,0-57.34,0-75.06-1.07l-9.38-1.06v37.66l34.4,6.46c11.47,2.15,22.93,5.38,22.93,51.66v298.1c0,47.35-10.43,49.5-22.93,51.65l-34.4,6.46v37.66l16.68-1.07c19.81-1.07,49-2.15,78.18-2.15,32.31,0,75.06,1.07,91.73,2.15h9.38v-37.66l-44.82-6.46c-11.47-2.15-22.93-3.23-22.93-51.65v-115.15c12.51,1.07,25.02,1.07,42.74,1.07,44.82,82.86,85.48,143.13,107.37,170.03,25.02,31.21,60.46,47.35,102.16,47.35,13.55,0,28.15-3.23,36.48-7.53l5.21-2.15v-31.21h-8.34c-18.77,0-41.7-13.99-62.55-36.6"/>
</svg>